<svg width="40" height="40" viewBox="0 0 40 40" fill="none" xmlns="http://www.w3.org/2000/svg">
<path d="M10.25 12C10.5 12.25 10.875 12.375 11.125 12.375C11.375 12.375 11.75 12.25 12 12C12.5 11.5 12.5 10.75 12 10.25L9.375 7.625C8.875 7.125 8.125 7.125 7.625 7.625C7.125 8.125 7.125 8.875 7.625 9.375L10.25 12Z" fill="#3716C6"/>
<path d="M8.75 20C8.75 19.25 8.25 18.75 7.5 18.75H3.75C3 18.75 2.5 19.25 2.5 20C2.5 20.75 3 21.25 3.75 21.25H7.5C8.25 21.25 8.75 20.75 8.75 20Z" fill="#3716C6"/>
<path d="M10.25 28L7.625 30.625C7.125 31.125 7.125 31.875 7.625 32.375C7.875 32.625 8.25 32.75 8.5 32.75C8.75 32.75 9.125 32.625 9.375 32.375L12 29.75C12.5 29.25 12.5 28.5 12 28C11.5 27.5 10.75 27.5 10.25 28Z" fill="#3716C6"/>
<path d="M36.75 20.25C36.25 20 35.625 20.125 35.25 20.625C34.25 21.875 32.75 22.5 31.25 22.5C28.375 22.5 25.875 20.125 25.875 17.125C25.875 15.125 27 13.375 28.75 12.375C29.25 12.125 29.5 11.5 29.375 11C29.25 10.5 28.75 10 28.125 10C28 10 27.75 10 27.625 10C25.25 10 23 10.875 21.25 12.25V3.75C21.25 3 20.75 2.5 20 2.5C19.25 2.5 18.75 3 18.75 3.75V10.125C13.875 10.75 10 15 10 20C10 25 13.875 29.25 18.75 29.875V36.25C18.75 37 19.25 37.5 20 37.5C20.75 37.5 21.25 37 21.25 36.25V27.75C23 29.25 25.25 30 27.625 30C32.625 30 36.75 26.375 37.5 21.5C37.625 21 37.25 20.375 36.75 20.25ZM21.25 25C21.25 25.75 20.75 26.25 20 26.25C19.25 26.25 18.75 25.75 18.75 25V15C18.75 14.25 19.25 13.75 20 13.75C20.75 13.75 21.25 14.25 21.25 15V25Z" fill="#3716C6"/>
</svg>
