<svg width="111" height="37" viewBox="0 0 111 37" fill="none" xmlns="http://www.w3.org/2000/svg">
<g filter="url(#filter0_b_10_37)">
<path d="M25.9205 12.375C25.8295 11.5455 25.6364 10.8125 25.3409 10.1761C25.0568 9.52841 24.6648 8.98295 24.1648 8.53977C23.6648 8.08523 23.0568 7.73864 22.3409 7.5C21.625 7.26136 20.7955 7.14205 19.8523 7.14205C18.0682 7.14205 16.3977 7.58523 14.8409 8.47159C13.2955 9.35795 11.9773 10.6477 10.8864 12.3409C9.79545 14.0227 9.05114 16.0795 8.65341 18.5114C8.24432 20.9432 8.24432 23.0114 8.65341 24.7159C9.07386 26.4205 9.86364 27.7216 11.0227 28.6193C12.1932 29.5057 13.6989 29.9489 15.5398 29.9489C17.2102 29.9489 18.7102 29.6534 20.0398 29.0625C21.3693 28.4602 22.4545 27.6136 23.2955 26.5227C24.1477 25.4318 24.6932 24.142 24.9318 22.6534L26.3977 22.875H17.4148L18.3352 17.3182H32.9432L32.1932 21.7159C31.7045 24.7841 30.6307 27.4205 28.9716 29.625C27.3125 31.8295 25.2443 33.5227 22.767 34.7045C20.3011 35.8864 17.5966 36.4773 14.6534 36.4773C11.3807 36.4773 8.625 35.7557 6.38636 34.3125C4.15909 32.858 2.57386 30.7955 1.63068 28.125C0.698864 25.4432 0.534091 22.2614 1.13636 18.5795C1.60227 15.75 2.43182 13.2273 3.625 11.0114C4.82955 8.78409 6.30114 6.89773 8.03977 5.35227C9.77841 3.80682 11.7045 2.63068 13.8182 1.82386C15.9432 1.01704 18.1534 0.613635 20.4489 0.613635C22.4261 0.613635 24.2159 0.903408 25.8182 1.48295C27.4318 2.05114 28.8125 2.85795 29.9602 3.90341C31.1193 4.94886 31.9943 6.19318 32.5852 7.63636C33.1875 9.06818 33.4659 10.6477 33.4205 12.375H25.9205ZM40.3963 36L37.6349 9.81818H44.9815L46.1065 27.4091H46.3452L53.5043 9.81818H60.7145L62.0781 27.3068H62.2997L69.2202 9.81818H76.5497L65.0781 36H57.3906L55.6179 19.5341H55.294L48.0668 36H40.3963ZM103.264 12.375C103.173 11.5455 102.98 10.8125 102.685 10.1761C102.401 9.52841 102.009 8.98295 101.509 8.53977C101.009 8.08523 100.401 7.73864 99.6847 7.5C98.9688 7.26136 98.1392 7.14205 97.196 7.14205C95.4119 7.14205 93.7415 7.58523 92.1847 8.47159C90.6392 9.35795 89.321 10.6477 88.2301 12.3409C87.1392 14.0227 86.3949 16.0795 85.9972 18.5114C85.5881 20.9432 85.5881 23.0114 85.9972 24.7159C86.4176 26.4205 87.2074 27.7216 88.3665 28.6193C89.5369 29.5057 91.0426 29.9489 92.8835 29.9489C94.554 29.9489 96.054 29.6534 97.3835 29.0625C98.7131 28.4602 99.7983 27.6136 100.639 26.5227C101.491 25.4318 102.037 24.142 102.276 22.6534L103.741 22.875H94.7585L95.679 17.3182H110.287L109.537 21.7159C109.048 24.7841 107.974 27.4205 106.315 29.625C104.656 31.8295 102.588 33.5227 100.111 34.7045C97.6449 35.8864 94.9403 36.4773 91.9972 36.4773C88.7244 36.4773 85.9688 35.7557 83.7301 34.3125C81.5028 32.858 79.9176 30.7955 78.9744 28.125C78.0426 25.4432 77.8778 22.2614 78.4801 18.5795C78.946 15.75 79.7756 13.2273 80.9688 11.0114C82.1733 8.78409 83.6449 6.89773 85.3835 5.35227C87.1222 3.80682 89.0483 2.63068 91.1619 1.82386C93.2869 1.01704 95.4972 0.613635 97.7926 0.613635C99.7699 0.613635 101.56 0.903408 103.162 1.48295C104.776 2.05114 106.156 2.85795 107.304 3.90341C108.463 4.94886 109.338 6.19318 109.929 7.63636C110.531 9.06818 110.81 10.6477 110.764 12.375H103.264Z" fill="#3716C6"/>
<path d="M25.9205 12.375L25.4234 12.4295L25.4723 12.875H25.9205V12.375ZM25.3409 10.1761L24.8829 10.377L24.8874 10.3867L25.3409 10.1761ZM24.1648 8.53977L23.8284 8.90977L23.8331 8.91395L24.1648 8.53977ZM22.3409 7.5L22.499 7.02566L22.499 7.02566L22.3409 7.5ZM14.8409 8.47159L14.5935 8.03708L14.5922 8.03786L14.8409 8.47159ZM10.8864 12.3409L11.3058 12.613L11.3067 12.6117L10.8864 12.3409ZM8.65341 18.5114L9.14649 18.5943L9.14685 18.5921L8.65341 18.5114ZM8.65341 24.7159L8.16721 24.8326L8.16796 24.8357L8.65341 24.7159ZM11.0227 28.6193L10.7165 29.0146L10.7209 29.0179L11.0227 28.6193ZM20.0398 29.0625L20.2428 29.5194L20.2461 29.5179L20.0398 29.0625ZM23.2955 26.5227L22.9014 26.2149L22.8994 26.2175L23.2955 26.5227ZM24.9318 22.6534L25.0066 22.159L24.5166 22.085L24.4381 22.5743L24.9318 22.6534ZM26.3977 22.875V23.375L26.4725 22.3806L26.3977 22.875ZM17.4148 22.875L16.9215 22.7933L16.8251 23.375H17.4148V22.875ZM18.3352 17.3182V16.8182H17.9112L17.8419 17.2365L18.3352 17.3182ZM32.9432 17.3182L33.4361 17.4022L33.5357 16.8182H32.9432V17.3182ZM32.1932 21.7159L31.7003 21.6318L31.6994 21.6373L32.1932 21.7159ZM28.9716 29.625L29.3711 29.9257L29.3711 29.9257L28.9716 29.625ZM22.767 34.7045L22.5518 34.2533L22.551 34.2537L22.767 34.7045ZM6.38636 34.3125L6.11297 34.7311L6.11545 34.7327L6.38636 34.3125ZM1.63068 28.125L1.15837 28.2891L1.15922 28.2915L1.63068 28.125ZM1.13636 18.5795L0.643007 18.4983L0.642922 18.4988L1.13636 18.5795ZM3.625 11.0114L3.1852 10.7735L3.18476 10.7743L3.625 11.0114ZM8.03977 5.35227L8.37195 5.72598L8.37196 5.72598L8.03977 5.35227ZM13.8182 1.82386L13.6407 1.35642L13.6399 1.35674L13.8182 1.82386ZM25.8182 1.48295L25.6481 1.95316L25.6521 1.95457L25.8182 1.48295ZM29.9602 3.90341L29.6235 4.27305L29.6253 4.27469L29.9602 3.90341ZM32.5852 7.63636L32.1225 7.82583L32.1243 7.83023L32.5852 7.63636ZM33.4205 12.375V12.875H33.9075L33.9203 12.3882L33.4205 12.375ZM26.4175 12.3205C26.3217 11.4469 26.1166 10.6596 25.7944 9.96558L24.8874 10.3867C25.1561 10.9654 25.3374 11.644 25.4234 12.4295L26.4175 12.3205ZM25.7988 9.9753C25.4874 9.26531 25.0537 8.65954 24.4964 8.1656L23.8331 8.91395C24.2759 9.30637 24.6262 9.79151 24.883 10.377L25.7988 9.9753ZM24.5011 8.1698C23.9439 7.66325 23.2732 7.28372 22.499 7.02566L22.1828 7.97434C22.8404 8.19355 23.3856 8.5072 23.8284 8.90974L24.5011 8.1698ZM22.499 7.02566C21.7212 6.76639 20.8364 6.64205 19.8523 6.64205V7.64205C20.7546 7.64205 21.5288 7.75633 22.1828 7.97434L22.499 7.02566ZM19.8523 6.64205C17.9811 6.64205 16.2254 7.10798 14.5935 8.03708L15.0883 8.9061C16.5701 8.06247 18.1553 7.64205 19.8523 7.64205V6.64205ZM14.5922 8.03786C12.9687 8.96896 11.5946 10.3185 10.466 12.0701L11.3067 12.6117C12.36 10.9769 13.6222 9.74694 15.0897 8.90532L14.5922 8.03786ZM10.4669 12.0688C9.33078 13.8203 8.56636 15.9458 8.15997 18.4307L9.14685 18.5921C9.53591 16.2132 10.2601 14.2251 11.3058 12.613L10.4669 12.0688ZM8.16034 18.4284C7.7443 20.9015 7.73742 23.0418 8.16722 24.8326L9.1396 24.5992C8.75121 22.9809 8.74433 20.9849 9.14648 18.5943L8.16034 18.4284ZM8.16796 24.8357C8.60988 26.6272 9.45169 28.035 10.7166 29.0146L11.3289 28.224C10.2756 27.4082 9.53784 26.2137 9.13886 24.5962L8.16796 24.8357ZM10.7209 29.0179C11.9982 29.9852 13.618 30.4489 15.5398 30.4489V29.4489C13.7798 29.4489 12.3882 29.0261 11.3246 28.2207L10.7209 29.0179ZM15.5398 30.4489C17.2699 30.4489 18.8406 30.1426 20.2428 29.5194L19.8367 28.6056C18.5799 29.1642 17.1506 29.4489 15.5398 29.4489V30.4489ZM20.2461 29.5179C21.6456 28.884 22.7976 27.9876 23.6915 26.828L22.8994 26.2175C22.1115 27.2397 21.093 28.0365 19.8335 28.6071L20.2461 29.5179ZM23.6895 26.8305C24.5983 25.6672 25.1747 24.297 25.4255 22.7326L24.4381 22.5743C24.2116 23.9871 23.6971 25.1964 22.9014 26.2149L23.6895 26.8305ZM24.8571 23.1478L26.323 23.3694L26.4725 22.3806L25.0066 22.159L24.8571 23.1478ZM26.3977 22.375H17.4148V23.375H26.3977V22.375ZM17.9081 22.9567L18.8285 17.3999L17.8419 17.2365L16.9215 22.7933L17.9081 22.9567ZM18.3352 17.8182H32.9432V16.8182H18.3352V17.8182ZM32.4503 17.2341L31.7003 21.6319L32.6861 21.8L33.4361 17.4022L32.4503 17.2341ZM31.6994 21.6373C31.222 24.6352 30.1762 27.1928 28.5721 29.3243L29.3711 29.9257C31.0852 27.6481 32.1871 24.933 32.687 21.7945L31.6994 21.6373ZM28.5721 29.3243C26.9611 31.4649 24.956 33.1063 22.5518 34.2533L22.9823 35.1558C25.5326 33.9392 27.6639 32.1942 29.3711 29.9257L28.5721 29.3243ZM22.551 34.2537C20.1575 35.4007 17.5276 35.9773 14.6534 35.9773V36.9773C17.6656 36.9773 20.4447 36.372 22.9831 35.1554L22.551 34.2537ZM14.6534 35.9773C11.4547 35.9773 8.79842 35.2726 6.65728 33.8923L6.11545 34.7327C8.45158 36.2388 11.3067 36.9773 14.6534 36.9773V35.9773ZM6.65976 33.8939C4.53054 32.5034 3.01129 30.5326 2.10214 27.9585L1.15922 28.2915C2.13644 31.0583 3.78764 33.2126 6.11297 34.7311L6.65976 33.8939ZM2.10298 27.9609C1.2057 25.3785 1.03689 22.2849 1.62981 18.6603L0.642922 18.4988C0.0312969 22.2378 0.192023 25.5079 1.15838 28.2891L2.10298 27.9609ZM1.62972 18.6608C2.08789 15.8783 2.90162 13.4094 4.06524 11.2484L3.18476 10.7743C1.96202 13.0451 1.11666 15.6217 0.643007 18.4983L1.62972 18.6608ZM4.0648 11.2492C5.24411 9.06861 6.68052 7.22947 8.37195 5.72598L7.70759 4.97857C5.92175 6.56598 4.41498 8.49957 3.1852 10.7735L4.0648 11.2492ZM8.37196 5.72598C10.0667 4.21956 11.941 3.07562 13.9965 2.29099L13.6399 1.35674C11.4681 2.18574 9.49014 3.39407 7.70759 4.97857L8.37196 5.72598ZM13.9957 2.2913C16.0634 1.50623 18.2134 1.11364 20.4489 1.11364V0.113635C18.0934 0.113635 15.823 0.52786 13.6407 1.35642L13.9957 2.2913ZM20.4489 1.11364C22.3773 1.11364 24.1084 1.39621 25.6481 1.95314L25.9883 1.01277C24.3235 0.41061 22.475 0.113635 20.4489 0.113635V1.11364ZM25.6521 1.95457C27.2091 2.5028 28.5301 3.27706 29.6235 4.27305L30.2969 3.53377C29.0949 2.43885 27.6546 1.59947 25.9842 1.01134L25.6521 1.95457ZM29.6253 4.27469C30.7288 5.26995 31.5601 6.45214 32.1225 7.82582L33.0479 7.4469C32.4286 5.93422 31.5099 4.62778 30.2951 3.53212L29.6253 4.27469ZM32.1243 7.83023C32.6961 9.18957 32.9644 10.6975 32.9206 12.3618L33.9203 12.3882C33.9674 10.5979 33.6789 8.94679 33.0461 7.4425L32.1243 7.83023ZM33.4205 11.875H25.9205V12.875H33.4205V11.875ZM40.3963 36L39.8991 36.0524L39.9463 36.5H40.3963V36ZM37.6349 9.81818V9.31818H37.0794L37.1377 9.87062L37.6349 9.81818ZM44.9815 9.81818L45.4805 9.78627L45.4506 9.31818H44.9815V9.81818ZM46.1065 27.4091L45.6076 27.441L45.6375 27.9091H46.1065V27.4091ZM46.3452 27.4091V27.9091H46.6815L46.8083 27.5976L46.3452 27.4091ZM53.5043 9.81818V9.31818H53.1679L53.0411 9.6297L53.5043 9.81818ZM60.7145 9.81818L61.213 9.77931L61.177 9.31818H60.7145V9.81818ZM62.0781 27.3068L61.5796 27.3457L61.6156 27.8068H62.0781V27.3068ZM62.2997 27.3068V27.8068H62.6396L62.7646 27.4908L62.2997 27.3068ZM69.2202 9.81818V9.31818H68.8803L68.7552 9.63421L69.2202 9.81818ZM76.5497 9.81818L77.0077 10.0188L77.3147 9.31818H76.5497V9.81818ZM65.0781 36V36.5H65.4049L65.5361 36.2007L65.0781 36ZM57.3906 36L56.8935 36.0535L56.9416 36.5H57.3906V36ZM55.6179 19.5341L56.115 19.4806L56.067 19.0341H55.6179V19.5341ZM55.294 19.5341V19.0341H54.9675L54.8362 19.3331L55.294 19.5341ZM48.0668 36V36.5H48.3933L48.5246 36.201L48.0668 36ZM40.8935 35.9476L38.1322 9.76574L37.1377 9.87062L39.8991 36.0524L40.8935 35.9476ZM37.6349 10.3182H44.9815V9.31818H37.6349V10.3182ZM44.4826 9.85009L45.6076 27.441L46.6055 27.3772L45.4805 9.78627L44.4826 9.85009ZM46.1065 27.9091H46.3452V26.9091H46.1065V27.9091ZM46.8083 27.5976L53.9674 10.0067L53.0411 9.6297L45.8821 27.2206L46.8083 27.5976ZM53.5043 10.3182H60.7145V9.31818H53.5043V10.3182ZM60.216 9.85705L61.5796 27.3457L62.5766 27.2679L61.213 9.77931L60.216 9.85705ZM62.0781 27.8068H62.2997V26.8068H62.0781V27.8068ZM62.7646 27.4908L69.6851 10.0022L68.7552 9.63421L61.8348 27.1228L62.7646 27.4908ZM69.2202 10.3182H76.5497V9.31818H69.2202V10.3182ZM76.0917 9.61752L64.6202 35.7993L65.5361 36.2007L77.0077 10.0188L76.0917 9.61752ZM65.0781 35.5H57.3906V36.5H65.0781V35.5ZM57.8878 35.9465L56.115 19.4806L55.1208 19.5876L56.8935 36.0535L57.8878 35.9465ZM55.6179 19.0341H55.294V20.0341H55.6179V19.0341ZM54.8362 19.3331L47.6089 35.799L48.5246 36.201L55.7519 19.735L54.8362 19.3331ZM48.0668 35.5H40.3963V36.5H48.0668V35.5ZM103.264 12.375L102.767 12.4295L102.816 12.875H103.264V12.375ZM102.685 10.1761L102.227 10.377L102.231 10.3867L102.685 10.1761ZM101.509 8.53977L101.172 8.90977L101.177 8.91395L101.509 8.53977ZM99.6847 7.5L99.8428 7.02566L99.8428 7.02566L99.6847 7.5ZM92.1847 8.47159L91.9373 8.03708L91.9359 8.03786L92.1847 8.47159ZM88.2301 12.3409L88.6496 12.613L88.6504 12.6117L88.2301 12.3409ZM85.9972 18.5114L86.4902 18.5943L86.4906 18.5921L85.9972 18.5114ZM85.9972 24.7159L85.511 24.8326L85.5117 24.8357L85.9972 24.7159ZM88.3665 28.6193L88.0603 29.0146L88.0646 29.0179L88.3665 28.6193ZM97.3835 29.0625L97.5866 29.5194L97.5898 29.5179L97.3835 29.0625ZM100.639 26.5227L100.245 26.2149L100.243 26.2175L100.639 26.5227ZM102.276 22.6534L102.35 22.159L101.86 22.085L101.782 22.5743L102.276 22.6534ZM103.741 22.875V23.375L103.816 22.3806L103.741 22.875ZM94.7585 22.875L94.2652 22.7933L94.1689 23.375H94.7585V22.875ZM95.679 17.3182V16.8182H95.255L95.1857 17.2365L95.679 17.3182ZM110.287 17.3182L110.78 17.4022L110.879 16.8182H110.287V17.3182ZM109.537 21.7159L109.044 21.6318L109.043 21.6373L109.537 21.7159ZM106.315 29.625L106.715 29.9257L106.715 29.9257L106.315 29.625ZM100.111 34.7045L99.8955 34.2533L99.8947 34.2537L100.111 34.7045ZM83.7301 34.3125L83.4567 34.7311L83.4592 34.7327L83.7301 34.3125ZM78.9744 28.125L78.5021 28.2891L78.503 28.2915L78.9744 28.125ZM78.4801 18.5795L77.9868 18.4983L77.9867 18.4988L78.4801 18.5795ZM80.9688 11.0114L80.5289 10.7735L80.5285 10.7743L80.9688 11.0114ZM85.3835 5.35227L85.7157 5.72598L85.7157 5.72598L85.3835 5.35227ZM91.1619 1.82386L90.9845 1.35642L90.9836 1.35674L91.1619 1.82386ZM103.162 1.48295L102.992 1.95316L102.996 1.95457L103.162 1.48295ZM107.304 3.90341L106.967 4.27305L106.969 4.27469L107.304 3.90341ZM109.929 7.63636L109.466 7.82583L109.468 7.83023L109.929 7.63636ZM110.764 12.375V12.875H111.251L111.264 12.3882L110.764 12.375ZM103.761 12.3205C103.665 11.4469 103.46 10.6596 103.138 9.96558L102.231 10.3867C102.5 10.9654 102.681 11.644 102.767 12.4295L103.761 12.3205ZM103.143 9.9753C102.831 9.26531 102.397 8.65954 101.84 8.1656L101.177 8.91395C101.62 9.30637 101.97 9.79151 102.227 10.377L103.143 9.9753ZM101.845 8.1698C101.288 7.66325 100.617 7.28372 99.8428 7.02566L99.5265 7.97434C100.184 8.19355 100.729 8.5072 101.172 8.90974L101.845 8.1698ZM99.8428 7.02566C99.065 6.76639 98.1801 6.64205 97.196 6.64205V7.64205C98.0983 7.64205 98.8725 7.75633 99.5265 7.97434L99.8428 7.02566ZM97.196 6.64205C95.3248 6.64205 93.5691 7.10798 91.9373 8.03708L92.432 8.9061C93.9138 8.06247 95.4991 7.64205 97.196 7.64205V6.64205ZM91.9359 8.03786C90.3124 8.96896 88.9383 10.3185 87.8098 12.0701L88.6504 12.6117C89.7037 10.9769 90.966 9.74694 92.4334 8.90532L91.9359 8.03786ZM87.8106 12.0688C86.6745 13.8203 85.9101 15.9458 85.5037 18.4307L86.4906 18.5921C86.8797 16.2132 87.6039 14.2251 88.6496 12.613L87.8106 12.0688ZM85.5041 18.4284C85.0881 20.9015 85.0812 23.0418 85.511 24.8326L86.4834 24.5992C86.095 22.9809 86.0881 20.9849 86.4902 18.5943L85.5041 18.4284ZM85.5117 24.8357C85.9536 26.6272 86.7954 28.035 88.0603 29.0146L88.6726 28.224C87.6193 27.4082 86.8816 26.2137 86.4826 24.5962L85.5117 24.8357ZM88.0646 29.0179C89.342 29.9852 90.9617 30.4489 92.8835 30.4489V29.4489C91.1235 29.4489 89.7319 29.0261 88.6683 28.2207L88.0646 29.0179ZM92.8835 30.4489C94.6136 30.4489 96.1843 30.1426 97.5866 29.5194L97.1805 28.6056C95.9236 29.1642 94.4943 29.4489 92.8835 29.4489V30.4489ZM97.5898 29.5179C98.9894 28.884 100.141 27.9876 101.035 26.828L100.243 26.2175C99.4553 27.2397 98.4368 28.0365 97.1772 28.6071L97.5898 29.5179ZM101.033 26.8305C101.942 25.6672 102.518 24.297 102.769 22.7326L101.782 22.5743C101.555 23.9871 101.041 25.1964 100.245 26.2149L101.033 26.8305ZM102.201 23.1478L103.667 23.3694L103.816 22.3806L102.35 22.159L102.201 23.1478ZM103.741 22.375H94.7585V23.375H103.741V22.375ZM95.2518 22.9567L96.1723 17.3999L95.1857 17.2365L94.2652 22.7933L95.2518 22.9567ZM95.679 17.8182H110.287V16.8182H95.679V17.8182ZM109.794 17.2341L109.044 21.6319L110.03 21.8L110.78 17.4022L109.794 17.2341ZM109.043 21.6373C108.566 24.6352 107.52 27.1928 105.916 29.3243L106.715 29.9257C108.429 27.6481 109.531 24.933 110.031 21.7945L109.043 21.6373ZM105.916 29.3243C104.305 31.4649 102.3 33.1063 99.8955 34.2533L100.326 35.1558C102.876 33.9392 105.008 32.1942 106.715 29.9257L105.916 29.3243ZM99.8947 34.2537C97.5013 35.4007 94.8714 35.9773 91.9972 35.9773V36.9773C95.0093 36.9773 97.7885 36.372 100.327 35.1554L99.8947 34.2537ZM91.9972 35.9773C88.7985 35.9773 86.1422 35.2726 84.001 33.8923L83.4592 34.7327C85.7953 36.2388 88.6504 36.9773 91.9972 36.9773V35.9773ZM84.0035 33.8939C81.8743 32.5034 80.355 30.5326 79.4459 27.9585L78.503 28.2915C79.4802 31.0583 81.1314 33.2126 83.4567 34.7311L84.0035 33.8939ZM79.4467 27.9609C78.5495 25.3785 78.3806 22.2849 78.9736 18.6603L77.9867 18.4988C77.375 22.2378 77.5358 25.5079 78.5021 28.2891L79.4467 27.9609ZM78.9735 18.6608C79.4316 15.8783 80.2454 13.4094 81.409 11.2484L80.5285 10.7743C79.3058 13.0451 78.4604 15.6217 77.9868 18.4983L78.9735 18.6608ZM81.4086 11.2492C82.5879 9.06861 84.0243 7.22947 85.7157 5.72598L85.0513 4.97857C83.2655 6.56598 81.7587 8.49957 80.5289 10.7735L81.4086 11.2492ZM85.7157 5.72598C87.4104 4.21956 89.2847 3.07562 91.3402 2.29099L90.9836 1.35674C88.8119 2.18574 86.8339 3.39407 85.0513 4.97857L85.7157 5.72598ZM91.3394 2.2913C93.4071 1.50623 95.5572 1.11364 97.7926 1.11364V0.113635C95.4371 0.113635 93.1667 0.52786 90.9845 1.35642L91.3394 2.2913ZM97.7926 1.11364C99.721 1.11364 101.452 1.39621 102.992 1.95314L103.332 1.01277C101.667 0.41061 99.8187 0.113635 97.7926 0.113635V1.11364ZM102.996 1.95457C104.553 2.5028 105.874 3.27706 106.967 4.27305L107.641 3.53377C106.439 2.43885 104.998 1.59947 103.328 1.01134L102.996 1.95457ZM106.969 4.27469C108.073 5.26995 108.904 6.45214 109.466 7.82582L110.392 7.4469C109.772 5.93422 108.854 4.62778 107.639 3.53212L106.969 4.27469ZM109.468 7.83023C110.04 9.18957 110.308 10.6975 110.264 12.3618L111.264 12.3882C111.311 10.5979 111.023 8.94679 110.39 7.4425L109.468 7.83023ZM110.764 11.875H103.264V12.875H110.764V11.875Z" fill="black"/>
</g>
<defs>
<filter id="filter0_b_10_37" x="-3.76709" y="-3.38647" width="118.599" height="43.8638" filterUnits="userSpaceOnUse" color-interpolation-filters="sRGB">
<feFlood flood-opacity="0" result="BackgroundImageFix"/>
<feGaussianBlur in="BackgroundImageFix" stdDeviation="2"/>
<feComposite in2="SourceAlpha" operator="in" result="effect1_backgroundBlur_10_37"/>
<feBlend mode="normal" in="SourceGraphic" in2="effect1_backgroundBlur_10_37" result="shape"/>
</filter>
</defs>
</svg>
